<?xml version="1.0" encoding="UTF-8"?>
<!DOCTYPE svg PUBLIC "-//W3C//DTD SVG 1.1//EN" "http://www.w3.org/Graphics/SVG/1.1/DTD/svg11.dtd">

<svg xmlns="http://www.w3.org/2000/svg" version="1.1" width="480" height="380">
  <title>Camera</title>
  <desc>White camera icon</desc>
  <defs>
    <mask id="mask1">
      <circle cx="120" cy="70" r="60" fill="white"/>
      <circle cx="120" cy="70" r="10" fill="black"/>
      <circle cx="85" cy="70" r="14" fill="black"/>
      <circle cx="155" cy="70" r="14" fill="black"/>
      <circle cx="120" cy="105" r="14" fill="black"/>
      <circle cx="120" cy="35" r="14" fill="black"/>
    </mask>
    <mask id="mask2">
      <circle cx="270" cy="70" r="60" fill="white"/>
      <circle cx="270" cy="70" r="10" fill="black"/>
      <circle cx="235" cy="70" r="14" fill="black"/>
      <circle cx="305" cy="70" r="14" fill="black"/>
      <circle cx="270" cy="105" r="14" fill="black"/>
      <circle cx="270" cy="35" r="14" fill="black"/>
    </mask>
  </defs>
    
  <!-- Camera body -->  
  <rect x="50" y="145" rx="30" ry="30" width="300" height="180" 
      fill="white" />
  
  <!-- Camera front -->
  <path d="M370 200, L370 280, L430 325, L430 145"
      fill="white"
      stroke="white"
      stroke-linecap="round"
      stroke-linejoin="round"/>
  
  <!-- Roll left -->
  <circle cx="120" cy="70" r="65" 
      fill="transparent"
      stroke="white"
      stroke-width="8"/>
  <circle cx="120" cy="70" r="50" mask="url(#mask1)"
      fill="white"
      stroke="white"
      stroke-width="8"/>

  <!-- Roll right -->  
  <circle cx="270" cy="70" r="65"
      fill="transparent"
      stroke="white"
      stroke-width="8"/>
  <circle cx="270" cy="70" r="50" mask="url(#mask2)"
      fill="white"
      stroke="white"
      stroke-width="8"/>
</svg>