<?xml version="1.0" encoding="UTF-8"?>
<!DOCTYPE svg PUBLIC "-//W3C//DTD SVG 1.1//EN" "http://www.w3.org/Graphics/SVG/1.1/DTD/svg11.dtd">

<svg xmlns="http://www.w3.org/2000/svg" version="1.1" width="450" height="350">
  <title>Comb</title>
  <desc>Comb in black</desc>
  <path d="M50,200 L450,200 L450,270 L440,260 L440,210 L60,210 L60,260 L50,270 L50,200
        M420,210 L420,260 M400,210 L400,260 M380,210 L380,260 
        M360,210 L360,260 M340,210 L340,260 M320,210 L320,260 
        M300,210 L300,260 M280,210 L280,260 M260,210 L260,260
        M240,210 L240,260 M220,210 L220,260 M200,210 L200,260
        M180,210 L180,260 M160,210 L160,260 M140,210 L140,260
        M120,210 L120,260 M100,210 L100,260 M80,210 L80,260" 
        stroke="black" 
        stroke-linecap="round" 
        stroke-linejoin="round" 
        stroke-width="10"
        transform="rotate(-35,150,250)"/>
</svg>